<?xml version="1.0" encoding="utf-8"?>
<svg xmlns="http://www.w3.org/2000/svg"
aria-label="Web Widget" role="img"
viewBox="0 0 512 512">
<rect
width="512" height="512"
rx="15%"
fill="#6366f1"/>
<path fill="#ffffff" d="M256 96c-79.5 0-144 57.3-144 128c0 35.8 16.5 68.2 43.3 92.3l-27.7 55.4c-2.5 5 2.2 10.4 7.5 8.6l83.5-27.8c12.2 3.1 25.1 4.7 38.4 4.7c79.5 0 144-57.3 144-128S335.5 96 256 96zm-48 152c-13.3 0-24-10.7-24-24s10.7-24 24-24s24 10.7 24 24s-10.7 24-24 24zm48 0c-13.3 0-24-10.7-24-24s10.7-24 24-24s24 10.7 24 24s-10.7 24-24 24zm48 0c-13.3 0-24-10.7-24-24s10.7-24 24-24s24 10.7 24 24s-10.7 24-24 24z"/>
</svg>
